<svg width="512" height="512" xmlns="http://www.w3.org/2000/svg" fill="none">
 <defs>
  <linearGradient y2="0.96698" x2="0.94811" y1="0.03302" x1="0.05189" id="ab2f-bg">
   <stop stop-color="#17C0B5"/>
   <stop stop-color="#11525A" offset="0.6"/>
   <stop stop-color="#0A2328" offset="1"/>
  </linearGradient>
  <linearGradient y2="0.83937" x2="0.93711" y1="-0.03765" x1="0.08687" id="ab2f-ring">
   <stop stop-color="#F2C14A"/>
   <stop stop-color="#F06449" offset="1"/>
  </linearGradient>
 </defs>
 <g>
  <title>Layer 1</title>
  <rect id="svg_1" fill="url(#ab2f-bg)" rx="118" height="424" width="424" y="44" x="44"/>
  <path id="svg_2" fill="#08181D" d="m127,212c0,-49.153 39.847,-89 89,-89l84,0c49.15302,0 89,39.847 89,89l0,84c0,49.15302 -39.84698,89 -89,89l-84,0c-49.153,0 -89,-39.84698 -89,-89l0,-84z"/>
  <path id="svg_3" stroke-width="24" stroke="#E7FCF8" d="m174,223c0,-28.16701 22.83299,-51 51,-51l66,0c28.16699,0 51,22.83299 51,51l0,66c0,28.16699 -22.83301,51 -51,51l-66,0c-28.16701,0 -51,-22.83301 -51,-51l0,-66z"/>
  <path stroke-width="0" id="svg_4" fill="url(#ab2f-ring)" d="m321.54401,125.85065c16.40399,2.64099 28.16299,16.83888 26.38699,33.36485l-1.65201,15.36305l15.36301,1.65196c16.526,1.776 28.427,15.86102 26.651,32.38605c-1.776,16.52591 -16.55801,27.38193 -33.08398,25.60599l-15.36301,-1.65103l-1.65201,15.36197c-1.776,16.52599 -16.55801,27.38197 -33.08301,25.60698c-16.526,-1.776 -28.427,-15.862 -26.651,-32.38799l1.651,-15.36197l-15.362,-1.65201c-16.52592,-1.77594 -28.42693,-15.86093 -26.65092,-32.38696c1.77599,-16.52606 16.558,-27.38202 33.08394,-25.606l15.362,1.65096l1.65201,-15.362c1.77597,-16.52592 16.823,-29.22585 33.34799,-26.58385z"/>
 </g>
</svg>
