<svg width="264" height="263" xmlns="http://www.w3.org/2000/svg" fill="none">
 <defs>
  <linearGradient id="ab2f-ring" x1="0.08687" y1="-0.03765" x2="0.93711" y2="0.83937">
   <stop stop-color="#F2C14A"/>
   <stop offset="1" stop-color="#F06449"/>
  </linearGradient>
 </defs>
 <g>
  <title>Layer 1</title>
  <path d="m1.07741,89.49834c0,-49.15303 39.84692,-89 89,-89l84,0c49.15295,0 89.00005,39.84697 89.00005,89l0,83.99998c0,49.15303 -39.84709,88.99997 -89.00005,88.99997l-84,0c-49.15308,0 -89,-39.84694 -89,-88.99997l0,-83.99998z" fill="#08181D" id="svg_2"/>
  <path d="m48.07741,100.49834c0,-28.16702 22.83289,-51 51,-51l66,0c28.16699,0 51,22.83298 51,51l0,66c0,28.16714 -22.83301,50.99998 -51,50.99998l-66,0c-28.16711,0 -51,-22.83284 -51,-50.99998l0,-66z" stroke="#E7FCF8" stroke-width="24" id="svg_3"/>
  <path d="m195.62135,3.34896c16.40405,2.64101 28.16309,16.83889 26.38708,33.36486l-1.6521,15.36305l15.36304,1.65196c16.526,1.77603 28.42711,15.86102 26.65099,32.38605c-1.776,16.52603 -16.55797,27.38205 -33.08397,25.60596l-15.36304,-1.65097l-1.65198,15.36194c-1.776,16.526 -16.55798,27.38203 -33.08301,25.60699c-16.526,-1.77599 -28.427,-15.86197 -26.651,-32.38794l1.651,-15.36206l-15.36194,-1.65189c-16.52612,-1.77603 -28.427,-15.86105 -26.65088,-32.38692c1.77576,-16.52623 16.55774,-27.38206 33.08386,-25.60608l15.36206,1.65096l1.65198,-15.36206c1.77588,-16.52591 16.823,-29.22585 33.3479,-26.58385z" fill="url(#ab2f-ring)" id="svg_4" stroke-width="0"/>
 </g>
</svg>
